<svg id="Flat" height="512" viewBox="0 0 512 512" width="512" xmlns="http://www.w3.org/2000/svg"><path d="m24 200h464v288h-464z" fill="#c3c6c7"/><path d="m264 296h-80-80-80v160h80 80 80 80v-160z" fill="#dcdee0"/><path d="m24 144h464v56h-464z" fill="#c7312e"/><path d="m400 64h-79.573a71.885 71.885 0 0 0 -128.854 0h-79.573v80h90.442a71.76 71.76 0 0 0 107.116 0h90.442z" fill="#596063"/><path d="m344 296h144v192h-144z" fill="#7e8589"/><path d="m24 456h320v32h-320z" fill="#2e9163"/><path d="m440 408a8 8 0 0 1 -8-8v-16a8 8 0 0 1 16 0v16a8 8 0 0 1 -8 8z" fill="#6a7073"/><path d="m392 408a8 8 0 0 1 -8-8v-16a8 8 0 0 1 16 0v16a8 8 0 0 1 -8 8z" fill="#6a7073"/><path d="m16 200h48a0 0 0 0 1 0 0v40a24 24 0 0 1 -24 24 24 24 0 0 1 -24-24v-40a0 0 0 0 1 0 0z" fill="#2e9163"/><path d="m112 200h48a0 0 0 0 1 0 0v40a24 24 0 0 1 -24 24 24 24 0 0 1 -24-24v-40a0 0 0 0 1 0 0z" fill="#eb423f"/><path d="m160 200h48a0 0 0 0 1 0 0v40a24 24 0 0 1 -24 24 24 24 0 0 1 -24-24v-40a0 0 0 0 1 0 0z" fill="#2e9163"/><path d="m208 200h48a0 0 0 0 1 0 0v40a24 24 0 0 1 -24 24 24 24 0 0 1 -24-24v-40a0 0 0 0 1 0 0z" fill="#dcdee0"/><path d="m256 200h48a0 0 0 0 1 0 0v40a24 24 0 0 1 -24 24 24 24 0 0 1 -24-24v-40a0 0 0 0 1 0 0z" fill="#eb423f"/><path d="m304 200h48a0 0 0 0 1 0 0v40a24 24 0 0 1 -24 24 24 24 0 0 1 -24-24v-40a0 0 0 0 1 0 0z" fill="#2e9163"/><path d="m352 200h48a0 0 0 0 1 0 0v40a24 24 0 0 1 -24 24 24 24 0 0 1 -24-24v-40a0 0 0 0 1 0 0z" fill="#dcdee0"/><path d="m400 200h48a0 0 0 0 1 0 0v40a24 24 0 0 1 -24 24 24 24 0 0 1 -24-24v-40a0 0 0 0 1 0 0z" fill="#eb423f"/><path d="m448 200h48a0 0 0 0 1 0 0v40a24 24 0 0 1 -24 24 24 24 0 0 1 -24-24v-40a0 0 0 0 1 0 0z" fill="#2e9163"/><path d="m64 200h48a0 0 0 0 1 0 0v40a24 24 0 0 1 -24 24 24 24 0 0 1 -24-24v-40a0 0 0 0 1 0 0z" fill="#dcdee0"/><path d="m256 136 32-64s-14.327-16-32-16-32 16-32 16z" fill="#f7cc38"/><path d="m288 72-10.11 20.22c-10.52-16.22-32.26-16.42-43.7.16l-10.19-20.38s14.33-16 32-16 32 16 32 16z" fill="#f79539"/><path d="m192 112h-48a8 8 0 0 1 0-16h48a8 8 0 0 1 0 16z" fill="#dcdee0"/><path d="m368 112h-48a8 8 0 0 1 0-16h48a8 8 0 0 1 0 16z" fill="#dcdee0"/><path d="m408 296h16v192h-16z" fill="#6a7073"/><g fill="#c3c6c7"><path d="m96 296h16v160h-16z"/><path d="m176 296h16v160h-16z"/><path d="m256 296h16v160h-16z"/></g></svg>