<svg height="512pt" viewBox="0 0 512 512" width="512pt" xmlns="http://www.w3.org/2000/svg"><path d="m446 197.503906c0 103.46875-82.34375 186.585938-183.644531 189.894532-107.558594 3.503906-196.355469-82.574219-196.355469-189.894532 0-105.113281 85.246094-190.003906 190-190.003906 104.933594 0 190 85.070312 190 190.003906zm0 0" fill="#b5fcff"/><path d="m256 7.5c-5.046875 0-10.046875.203125-14.996094.589844 97.917969 7.648437 174.996094 89.53125 174.996094 189.414062 0 100.488282-77.671875 181.773438-174.945312 189.402344 7.003906.546875 14.109374.726562 21.300781.492188 101.300781-3.308594 183.644531-86.425782 183.644531-189.894532 0-104.933594-85.066406-190.003906-190-190.003906zm0 0" fill="#71f6fc"/><path d="m453.5 197.5c0-108.902344-88.597656-197.5-197.5-197.5s-197.5 88.597656-197.5 197.5c0 53.972656 21.351562 104.363281 60.117188 141.890625 37.203124 36.007813 85.742187 55.609375 137.324218 55.609375.082032 0 .164063-.003906.246094-.003906.664062 0 1.328125-.011719 1.992188-.03125 1.472656-.019532 2.945312-.027344 4.421874-.074219 51.167969-1.671875 99.089844-22.855469 134.9375-59.648437 36.085938-37.039063 55.960938-85.957032 55.960938-137.742188zm-194.304688 182.410156c-1.007812.054688-2.015624.078125-3.023437.078125-.125 0-.25 0-.375 0-15.921875-.097656-31.707031-7.136719-45.90625-20.542969-12.890625-12.175781-23.90625-28.773437-32.609375-48.417968 24.738281 6.675781 51.609375 10.15625 78.835938 10.15625 2.128906 0 4.257812-.019532 6.390624-.0625 25.121094-.503906 49.476563-3.933594 72-10-17.917968 40.375-45.027343 67.054687-75.3125 68.789062zm-185.695312-182.410156c0-28.347656 18.511719-55.265625 52.128906-75.792969 8.347656-5.101562 17.375-9.640625 26.941406-13.609375-8.078124 27.347656-12.359374 57.816406-12.359374 89.40625 0 31.625 4.386718 62.132813 12.410156 89.335938-20.941406-8.621094-39.027344-19.878906-52.714844-33.296875-17.273438-16.933594-26.40625-36.3125-26.40625-56.042969zm188.707031 108.621094c-32.460937.640625-64.050781-3.957032-91.867187-12.832032-9.726563-28.28125-15.128906-61.257812-15.128906-95.785156 0-34.433594 5.289062-67.363281 15.179687-95.925781 26.0625-8.335937 55.257813-12.761719 85.609375-12.761719 30.355469 0 59.546875 4.421875 85.605469 12.757813 9.894531 28.566406 15.183593 61.5 15.183593 95.925781 0 34.972656-5.632812 67.929688-15.34375 95.960938-24.230468 7.726562-51.191406 12.101562-79.238281 12.660156zm-6.207031-291.121094c26.113281 0 50.996094 18.417969 70.058594 51.863281 3.082031 5.410157 5.949218 11.101563 8.59375 17.039063-24.496094-6.609375-51.152344-10.085938-78.652344-10.085938-27.496094 0-54.15625 3.476563-78.65625 10.089844 2.65625-5.964844 5.539062-11.675781 8.636719-17.105469 19.0625-33.40625 43.929687-51.800781 70.019531-51.800781zm103.425781 93.089844c9.59375 3.980468 18.640625 8.539062 27.011719 13.65625 33.574219 20.527344 52.0625 47.433594 52.0625 75.753906v.003906c0 27.785156-17.871094 54.308594-50.320312 74.675782-8.832032 5.542968-18.472657 10.457031-28.75 14.714843 7.917968-26.816406 12.363281-57.179687 12.363281-89.390625-.003907-31.585937-4.289063-62.058594-12.367188-89.414062zm68.476563 28.125c-9.003906-9.914063-20.265625-19.085938-33.640625-27.269532-12.433594-7.601562-26.226563-14.050781-41.03125-19.273437-4.085938-10.75-8.808594-20.878906-14.140625-30.234375-8.253906-14.476562-17.601563-26.496094-27.746094-35.847656 54.199219 17.285156 97.472656 59.25 116.558594 112.625zm-227.242188-112.628906c-10.128906 9.339843-19.464844 21.332031-27.707031 35.78125-5.351563 9.375-10.09375 19.53125-14.1875 30.3125-14.773437 5.210937-28.542969 11.644531-40.957031 19.226562-13.40625 8.1875-24.691406 17.371094-33.707032 27.304688 19.089844-53.378907 62.363282-95.339844 116.558594-112.625zm-116.789062 234.894531c1.757812 1.953125 3.601562 3.878906 5.535156 5.773437 17.347656 17.007813 41.296875 31.144532 69.425781 41.050782 10.105469 26.667968 23.96875 49.183593 40.757813 65.042968.457031.433594.921875.835938 1.382812 1.257813-26.660156-8.394531-51.195312-22.933594-71.921875-42.996094-20.636719-19.972656-35.917969-43.898437-45.179687-70.128906zm227.066406 113.234375c17.21875-15.710938 31.757812-38.625 42.304688-66.410156 15.574218-5.492188 30.023437-12.332032 42.910156-20.421876 12.699218-7.96875 23.4375-16.863281 32.066406-26.445312-18.886719 53.972656-62.261719 96.164062-117.28125 113.277344zm0 0" fill="#47d5e6"/><path d="m33.460938 323.195312c0 13.320313-8 24.121094-17.863282 24.121094-9.867187 0-15.597656-12.402344-15.597656-25.722656 0-13.324219 5.730469-22.519531 15.597656-22.519531 9.867188 0 17.863282 10.796875 17.863282 24.121093zm0 0" fill="#e8916f"/><path d="m145.789062 323.195312c0 13.320313 8 24.121094 17.863282 24.121094 9.867187 0 15.597656-12.402344 15.597656-25.722656 0-13.324219-5.730469-22.519531-15.597656-22.519531-9.863282 0-17.863282 10.796875-17.863282 24.121093zm0 0" fill="#d98868"/><path d="m71.410156 397.972656h36.433594v58.476563h-36.433594zm0 0" fill="#d98868"/><path d="m24.046875 345.550781v-49.417969c0-34.179687 27.707031-61.890624 61.886719-61.890624h7.382812c34.179688 0 61.886719 27.710937 61.886719 61.890624v49.417969c0 36.21875-29.359375 65.582031-65.578125 65.582031s-65.578125-29.363281-65.578125-65.582031zm0 0" fill="#ebad88"/><path d="m93.316406 234.242188h-7.382812c-2.449219 0-4.863282.160156-7.238282.4375 30.765626 3.597656 54.648438 29.816406 54.648438 61.648437v49.019531c0 32.59375-23.632812 59.648438-54.648438 64.871094 3.554688.597656 7.203126.914062 10.929688.914062 36.21875 0 65.578125-29.453124 65.578125-65.785156v-49.019531c.003906-34.289063-27.707031-62.085937-61.886719-62.085937zm0 0" fill="#e8916f"/><path d="m23.765625 309.453125s5.453125 2.207031 11.054687-8.332031c6.40625-12.054688 23.289063-18.789063 43.519532-18.054688 23.34375.847656 33.894531-6.761718 39.269531-14.992187.460937-.707031 1.523437-.578125 1.792969.222656 6.84375 20.414063 16.132812 15.386719 22.242187 34.265625 3.613281 11.175781 13.097657 6.890625 13.097657 6.890625s26.09375-15.175781 12.644531-39.269531c2.308593-48.425782-35.546875-51.292969-35.546875-51.292969s-17.304688-22.042969-64.734375-10.578125c-68.441407 16.542969-56.289063 64.785156-56.289063 64.785156s-11.769531 22.851563 12.949219 36.355469zm0 0" fill="#8c4a37"/><path d="m167.386719 270.179688c2.308593-48.421876-35.546875-51.292969-35.546875-51.292969s-15.015625-19.089844-55.359375-12.472657c8.667969 1.753907 14.765625 4.855469 18.707031 7.527344 4.171875 2.828125 8.703125 5.101563 13.46875 6.738282 10.941406 3.757812 29.460938 15.203124 27.824219 49.503906 5.316406 9.527344 4.441406 17.652344 1.453125 24.003906 1.320312 2.175781 2.570312 4.855469 3.707031 8.375 3.617187 11.175781 13.097656 6.890625 13.097656 6.890625s26.09375-15.175781 12.648438-39.273437zm0 0" fill="#804231"/><path d="m408.304688 397.914062h36.433593v58.476563h-36.433593zm0 0" fill="#d98868"/><path d="m360.941406 345.492188v-49.417969c0-34.179688 27.707032-61.890625 61.886719-61.890625h7.382813c34.179687 0 61.890624 27.710937 61.890624 61.890625v49.417969c0 36.21875-29.363281 65.578124-65.582031 65.578124s-65.578125-29.359374-65.578125-65.578124zm0 0" fill="#ebad88"/><path d="m430.210938 234.183594h-7.378907c-2.453125 0-4.863281.160156-7.242187.4375 30.769531 3.597656 54.652344 29.816406 54.652344 61.648437v49.019531c0 32.59375-23.636719 59.648438-54.652344 64.867188 3.554687.601562 7.207031.917969 10.929687.917969 36.21875 0 65.582031-29.453125 65.582031-65.785157v-49.019531c0-34.289062-27.710937-62.085937-61.890624-62.085937zm0 0" fill="#e8916f"/><path d="m440.207031 266.191406s-38.28125 17.242188-51.5 39.507813c-17.371093 29.253906-17.835937 59.417969-26.421875 88.191406-.488281 1.648437-2.6875 1.960937-3.609375.511719-5.886719-9.21875-20.777343-35.210938-20.777343-62.230469 0-144.480469 105.464843-126.988281 110.175781-116.015625 21.273437-8.917969 63.925781 9.519531 63.925781 94.15625 0 40.769531-4.59375 68.828125-16.996094 86.824219-.992187 1.441406-3.230468 1.019531-3.609375-.691407-2.390625-10.757812-8.628906-40.101562-11.605469-66.09375-6.816406-59.582031-39.582031-64.160156-39.582031-64.160156zm0 0" fill="#8c4a37"/><path d="m448.074219 216.15625c-1.898438-4.417969-20.140625-9.894531-41.25-5.421875 3.734375.914063 6.5625 3.246094 10.019531 9.414063 4.605469 8.21875 11.488281 14.976562 20.023438 18.921874 22.976562 10.621094 37.46875 32.796876 44.363281 71.242188 1.628906 9.074219-.238281 17.78125-.742188 25.734375 3.160157 24.453125 8.691407 50.425781 10.90625 60.398437.378907 1.710938 2.617188 2.132813 3.609375.691407 12.402344-17.996094 16.996094-46.054688 16.996094-86.824219 0-84.636719-42.652344-103.074219-63.925781-94.15625zm0 0" fill="#804231"/><g fill="#ffbd54"><path d="m256.390625 93.699219c-4.140625 0-7.5 3.355469-7.5 7.5v14.664062c0 4.144531 3.359375 7.5 7.5 7.5s7.5-3.355469 7.5-7.5v-14.664062c0-4.140625-3.359375-7.5-7.5-7.5zm0 0"/><path d="m219.148438 108.726562c-2.070313-3.585937-6.65625-4.8125-10.242188-2.746093-3.589844 2.074219-4.816406 6.660156-2.746094 10.246093l7.332032 12.703126c1.390624 2.40625 3.910156 3.75 6.503906 3.75 1.269531 0 2.5625-.324219 3.742187-1.007813 3.585938-2.070313 4.816407-6.65625 2.746094-10.242187zm0 0"/><path d="m196.867188 144.949219-12.699219-7.332031c-3.589844-2.070313-8.175781-.84375-10.246094 2.742187-2.070313 3.589844-.84375 8.175781 2.746094 10.246094l12.699219 7.332031c1.183593.683594 2.472656 1.007812 3.742187 1.007812 2.59375 0 5.113281-1.34375 6.503906-3.75 2.070313-3.589843.839844-8.175781-2.746093-10.246093zm0 0"/><path d="m338.078125 139.863281c-2.070313-3.589843-6.660156-4.816406-10.246094-2.746093l-12.699219 7.332031c-3.585937 2.070312-4.816406 6.660156-2.746093 10.246093 1.390625 2.40625 3.910156 3.75 6.503906 3.75 1.269531 0 2.5625-.324218 3.742187-1.003906l12.699219-7.335937c3.589844-2.070313 4.816407-6.65625 2.746094-10.242188zm0 0"/><path d="m302.730469 105.117188c-3.589844-2.070313-8.175781-.84375-10.246094 2.742187l-7.332031 12.703125c-2.074219 3.585938-.84375 8.171875 2.742187 10.246094 1.183594.679687 2.472657 1.003906 3.746094 1.003906 2.589844 0 5.113281-1.34375 6.5-3.75l7.332031-12.703125c2.074219-3.585937.84375-8.171875-2.742187-10.242187zm0 0"/></g><path d="m306 197.753906c0-28.03125-22.386719-50.753906-50-50.753906s-50 22.722656-50 50.753906c0 17.152344 8.382812 32.316406 21.21875 41.503906 5.667969 4.054688 8.964844 10.726563 8.964844 17.765626h39.636718c0-7.042969 3.292969-13.710938 8.960938-17.765626 12.835938-9.1875 21.21875-24.351562 21.21875-41.503906zm0 0" fill="#ffd659"/><path d="m256 147c-5.226562 0-10.265625.816406-15 2.328125 20.285156 6.46875 35 25.699219 35 48.425781 0 17.152344-8.382812 32.316406-21.21875 41.503906-5.667969 4.054688-8.964844 10.726563-8.964844 17.765626h30c0-7.042969 3.296875-13.710938 8.964844-17.765626 12.835938-9.1875 21.21875-24.351562 21.21875-41.503906 0-28.03125-22.386719-50.753906-50-50.753906zm0 0" fill="#ffbd54"/><path d="m276.429688 257.023438h-40.859376c-1.921874 0-3.484374 1.5625-3.484374 3.484374v5.882813c0 11.382813 9.226562 20.609375 20.609374 20.609375h6.609376c11.382812 0 20.609374-9.226562 20.609374-20.609375v-5.882813c0-1.921874-1.5625-3.484374-3.484374-3.484374zm0 0" fill="#ff2c5c"/><path d="m174.878906 499.664062v8.335938c0 2.210938-1.789062 4-4 4h-162.507812c-2.207032 0-4-1.789062-4-4v-8.335938c0-35.859374 25.21875-64.933593 56.328125-64.933593h57.851562c31.109375.003906 56.328125 29.074219 56.328125 64.933593zm0 0" fill="#ff2c5c"/><path d="m118.550781 434.734375h-30.90625c31.113281 0 56.328125 29.070313 56.328125 64.933594v12.332031h26.90625c2.210938 0 4-1.789062 4-4v-8.335938c0-35.859374-25.21875-64.929687-56.328125-64.929687zm0 0" fill="#e62753"/><path d="m62.320312 434.734375h54.613282l-27.308594 77.265625zm0 0" fill="#dcdfe8"/><path d="m89.625 512-19.328125-81.457031c-.40625-1.71875-2.199219-2.714844-3.875-2.152344l-16.136719 5.425781c-1.628906.546875-2.722656 2.074219-2.722656 3.789063v28.566406c0 .765625.289062 1.5.816406 2.054687zm0 0" fill="#d6244d"/><path d="m89.625 512 19.328125-81.457031c.40625-1.71875 2.203125-2.714844 3.875-2.152344l16.136719 5.425781c1.628906.546875 2.726562 2.074219 2.726562 3.789063v28.566406c0 .765625-.292968 1.5-.816406 2.054687zm0 0" fill="#d6244d"/><path d="m511.773438 499.664062v8.335938c0 2.210938-1.789063 4-4 4h-162.507813c-2.207031 0-4-1.789062-4-4v-8.335938c0-35.859374 25.21875-64.933593 56.328125-64.933593h57.851562c31.113282.003906 56.328126 29.074219 56.328126 64.933593zm0 0" fill="#ffd659"/><path d="m455.445312 434.734375h-30.902343c31.109375 0 56.328125 29.070313 56.328125 64.933594v12.332031h26.902344c2.210937 0 4-1.789062 4-4v-8.335938c0-35.859374-25.214844-64.929687-56.328126-64.929687zm0 0" fill="#ffbd54"/><path d="m399.214844 434.734375h54.613281l-27.308594 77.265625zm0 0" fill="#dcdfe8"/><path d="m426.519531 512-19.328125-81.457031c-.40625-1.71875-2.199218-2.714844-3.875-2.152344l-16.136718 5.425781c-1.625.546875-2.722657 2.074219-2.722657 3.789063v28.566406c0 .765625.289063 1.5.816407 2.054687zm0 0" fill="#ffa954"/><path d="m426.519531 512 19.328125-81.457031c.410156-1.71875 2.203125-2.714844 3.875-2.152344l16.136719 5.425781c1.628906.546875 2.726563 2.074219 2.726563 3.789063v28.566406c0 .765625-.292969 1.5-.816407 2.054687zm0 0" fill="#ffa954"/></svg>